In.Time.2011.PL.BRRip.XviD-RLF
~~~~~~~~~~~~~~~~~~~~~~~~~~~


GENERAL:

Complete name            : rlf-time-pl.avi
Format                   : AVI
Format/Info              : Audio Video Interleave
File size                : 706 MiB
Duration                 : 1h 49mn
Overall bit rate         : 903 Kbps
Language                 : Polish
Subs                     : English, Spanish
Encoder                  : Ralf

Video:

Format                   : MPEG-4 Visual
Format profile           : Advanced Simple@L5
Format settings, BVOP    : 2
Format settings, QPel    : No
Format settings, GMC     : No warppoints
Format settings, Matrix  : H.263
Muxing mode              : Packed bitstream
Codec ID                 : XVID
Duration                 : 1h 49mn
Bit rate                 : 765 Kbps
Width                    : 688 pixels
Height                   : 288 pixels
Display aspect ratio     : 2.35:1
Frame rate               : 23.976 fps
Color space              : YUV
Chroma subsampling       : 4:2:0
Bit depth                : 8 bits
Scan type                : Progressive
Bits/(Pixel*Frame)       : 0.161
Stream size              : 598 MiB (86%)
Stream size              : Xvid 63

Audio:

Format                   : AC-3
Format/Info              : Audio Coding 3
Duration                 : 1h 49mn
Bit rate mode            : Constant
Bit rate                 : 128 Kbps
Channel(s)               : 2 channels
Channel positions        : Front: L R
Sampling rate            : 48.0 KHz
Bit depth                : 16 bits
Stream size              : 100 MiB (14%)
Alignment                : Aligned on interleaves
Interleave, duration     : 32 ms (0.77 video frame)

MOVIE INFO:

Swiat w niedalekiej przyszlosci: aby uniknac przeludnienia, wprowadzono 
reglamentacje czasu do przezycia, ktory stal sie najcenniejszym dobrem, 
jedyna powszechnie akceptowana waluta wymienialna. Bogaci, ktorych stac, 
by go kupowac, moga zyc wiecznie, biedni musza wykazac sie inwencja, by 
go zdobyc.
 
http://www.imdb.com/title/tt1637688/  
http://www.filmweb.pl/film/Wy┼Ñcig+z+czasem-2011-587175

SOURCE:

AMIABLE's 720p.BluRay.x264 / PSiG's AC3 5.1 (BiG THX)

SCREENS:
 
http://www.postimg.com/59000/photo-58954.jpg 
http://www.postimg.com/59000/photo-58953.jpg 
http://www.postimg.com/59000/photo-58955.jpg 
http://www.postimg.com/59000/photo-58952.jpg